<svg width="51" height="31" viewBox="0 0 51 31" fill="none" xmlns="http://www.w3.org/2000/svg">
<path opacity="0.99" d="M10.2941 3.0119C10.2977 3.0119 10.3012 3.01188 10.3048 3.01185L16.0139 16.0035L16.0227 16.023C16.6476 17.3665 17.8932 18.4519 19.4529 19.193L19.453 19.1931C21.0206 19.9378 22.8953 20.3333 24.8026 20.3452V20.3452H24.8088H48.9724C49.5246 20.3452 49.9724 19.8975 49.9724 19.3452V2.0119C49.9724 1.45962 49.5246 1.0119 48.9724 1.0119H10.9576C10.8432 1.0119 10.7313 1.03149 10.6263 1.06839C10.5224 1.0318 10.4106 1.0119 10.2941 1.0119H2C1.44772 1.0119 1 1.45962 1 2.0119C1 2.56419 1.44772 3.0119 2 3.0119H10.2941ZM25.5 29.0119C26.8032 29.0119 28.0304 28.6827 28.9636 28.0976C29.8831 27.5211 30.6471 26.5976 30.6471 25.4119C30.6471 24.2262 29.8831 23.3027 28.9636 22.7262C28.0304 22.1411 26.8032 21.8119 25.5 21.8119C24.1968 21.8119 22.9696 22.1411 22.0364 22.7262C21.1169 23.3027 20.3529 24.2263 20.3529 25.4119C20.3529 26.5975 21.1169 27.5211 22.0364 28.0976C22.9696 28.6827 24.1968 29.0119 25.5 29.0119ZM44.8529 29.0119C46.1561 29.0119 47.3833 28.6827 48.3165 28.0976C49.236 27.5211 50 26.5976 50 25.4119C50 24.2262 49.236 23.3027 48.3165 22.7262C47.3833 22.1411 46.1561 21.8119 44.8529 21.8119C43.5498 21.8119 42.3226 22.1411 41.3894 22.7262C40.4699 23.3027 39.7059 24.2262 39.7059 25.4119C39.7059 26.5976 40.4699 27.5211 41.3894 28.0976C42.3226 28.6827 43.5498 29.0119 44.8529 29.0119Z" fill="#D2F0F0" stroke="#2CBBB4" stroke-width="2" stroke-linecap="round" stroke-linejoin="round"/>
</svg>
