<svg width="189" height="37" viewBox="0 0 189 37" fill="none" xmlns="http://www.w3.org/2000/svg">
<path d="M149.147 23.8706C169.836 17.9395 171.836 13.8271 186.112 4C168.908 18.8107 134.805 32.5122 97.3363 32.5122C77.8302 32.5122 56.4507 29.2979 38.6269 23.8706C29.7165 21.1574 21.7597 17.9107 15.3958 14.2785C9.80494 11.0875 5.59835 7.6865 3 4.2227C21.8363 14.2785 7.53027 10.0854 33.7396 22.2959C59.9489 34.5064 81.3909 32.5122 97.3363 32.5122C113.256 32.5122 133.836 28.2599 149.147 23.8706Z" fill="white"/>
<path d="M97.3363 32.5122C134.805 32.5122 168.908 18.8107 186.112 4C171.836 13.8271 169.836 17.9395 149.147 23.8706C133.836 28.2599 113.256 32.5122 97.3363 32.5122ZM97.3363 32.5122C77.8302 32.5122 56.4507 29.2979 38.6269 23.8706C29.7165 21.1574 21.7597 17.9107 15.3958 14.2785C9.80494 11.0875 5.59835 7.6865 3 4.2227C21.8363 14.2785 7.53027 10.0854 33.7396 22.2959C59.9489 34.5064 81.3909 32.5122 97.3363 32.5122Z" stroke="white" stroke-width="8"/>
</svg>
