<svg width="190" height="37" viewBox="0 0 190 37" fill="" xmlns="http://www.w3.org/2000/svg">
<path d="M150.147 23.8706C170.836 17.9395 172.836 13.8271 187.112 4C169.908 18.8107 135.805 32.5122 98.3363 32.5122C78.8302 32.5122 57.4507 29.2979 39.6269 23.8706C30.7165 21.1574 22.7598 17.9107 16.3958 14.2785C10.8049 11.0875 6.59835 7.6865 4 4.2227C22.8363 14.2785 8.53027 10.0854 34.7396 22.2959C60.9489 34.5064 82.3909 32.5122 98.3363 32.5122C114.256 32.5122 134.836 28.2599 150.147 23.8706Z" fill="white"/>
<path d="M98.3363 32.5122C135.805 32.5122 169.908 18.8107 187.112 4C172.836 13.8271 170.836 17.9395 150.147 23.8706C134.836 28.2599 114.256 32.5122 98.3363 32.5122ZM98.3363 32.5122C78.8302 32.5122 57.4507 29.2979 39.6269 23.8706C30.7165 21.1574 22.7597 17.9107 16.3958 14.2785C10.8049 11.0875 6.59835 7.6865 4 4.2227C22.8363 14.2785 8.53027 10.0854 34.7396 22.2959C60.9489 34.5064 82.3909 32.5122 98.3363 32.5122Z" stroke="#42ADA8" stroke-width="8"/>
</svg>
