<svg width="190" height="64" viewBox="0 0 190 64" fill="none" xmlns="http://www.w3.org/2000/svg">
<path d="M147.602 11.7312C162.871 17.1473 176.651 24.5616 186.276 32.9878C169.072 47.7985 134.969 61.5 97.5 61.5C77.994 61.5 56.6145 58.2857 38.7907 52.8584C29.8803 50.1452 21.9235 46.8985 15.5595 43.2663C9.96869 40.0753 5.7621 36.6743 3.16375 33.2105C11.0864 24.8363 26.0577 17.2956 43.3262 11.7555C61.4392 5.9445 81.5546 2.5 97.5 2.5C113.42 2.5 131.262 5.93503 147.602 11.7312Z" fill="white" stroke="#36B5B1" stroke-width="5"/>
<path d="M122.5 32.5C122.5 44.802 110.402 55.5 94.5 55.5C78.5981 55.5 66.5 44.802 66.5 32.5C66.5 20.198 78.5981 9.5 94.5 9.5C110.402 9.5 122.5 20.198 122.5 32.5Z" fill="white" stroke="#36B5B1" stroke-width="5"/>
</svg>
