<svg width="206" height="33" viewBox="0 0 206 33" fill="none" xmlns="http://www.w3.org/2000/svg">
<g filter="url(#filter0_d_93_3258)">
<mask id="path-1-outside-1_93_3258" maskUnits="userSpaceOnUse" x="-1" y="-1" width="205" height="29" fill="black">
<rect fill="white" x="-1" y="-1" width="205" height="29"/>
<path d="M17.6414 8.12891C17.6414 10.681 16.8667 12.582 15.3172 13.832C13.7677 15.069 11.6062 15.6875 8.83281 15.6875H4.43828V26H0.395309L0.395309 0.511719H8.79375C11.5932 0.511719 13.7677 1.15625 15.3172 2.44531C16.8667 3.72135 17.6414 5.61589 17.6414 8.12891ZM13.5984 8.07031C13.5984 6.76823 13.1687 5.79167 12.3094 5.14062C11.463 4.48958 10.3042 4.16406 8.83281 4.16406H4.43828V12.0352H8.83281C10.3042 12.0352 11.463 11.7096 12.3094 11.0586C13.1687 10.4076 13.5984 9.41146 13.5984 8.07031ZM23.4312 7.79688H27.4742V19.0469C27.4742 20.4531 27.7411 21.4297 28.275 21.9766C28.8089 22.5234 29.5836 22.7969 30.5992 22.7969C32.0836 22.7969 33.301 22.1914 34.2516 20.9805C35.2021 19.7695 35.6773 18.0964 35.6773 15.9609V7.79688H39.7203V26H35.6773V21.4492C35.2737 23.0117 34.525 24.2357 33.4312 25.1211C32.3375 26.0065 30.9898 26.4492 29.3883 26.4492C27.5263 26.4492 26.068 25.8438 25.0133 24.6328C23.9586 23.4089 23.4312 21.5469 23.4312 19.0469V7.79688ZM62.7562 26H46.4672V22.4062L56.8383 11.4492H50.0219V15.1211H46.4672V7.79688H62.3852V11.4492L51.9945 22.3672H59.182V18.7539H62.7562V26ZM83.8586 26H71.632V22.3672H75.6164V4.16406H71.632V0.511719H79.6594V22.3672H83.8586V26ZM131.864 26H127.821V8.75391L125.262 17.9141H122.137L119.618 8.75391V26H115.575V0.511719H120.38L123.7 12.0352L127.02 0.511719H131.864V26ZM137.576 20.7656C137.576 19.6979 137.862 18.7669 138.435 17.9727C139.008 17.1654 139.757 16.4948 140.681 15.9609C141.619 15.4271 142.686 15.0299 143.884 14.7695C145.095 14.4961 146.326 14.3594 147.576 14.3594C148.266 14.3594 148.858 14.3724 149.353 14.3984C149.848 14.4245 150.349 14.4635 150.857 14.5156V13.793C150.857 12.8424 150.486 12.1328 149.744 11.6641C149.015 11.1953 148.051 10.9609 146.853 10.9609C145.759 10.9609 144.646 11.1172 143.513 11.4297C142.38 11.7292 141.306 12.1719 140.291 12.7578L138.65 9.59375C139.848 8.90365 141.13 8.36328 142.498 7.97266C143.878 7.56901 145.33 7.36719 146.853 7.36719C147.843 7.36719 148.813 7.47786 149.763 7.69922C150.727 7.92057 151.586 8.28516 152.341 8.79297C153.11 9.30078 153.722 9.96484 154.177 10.7852C154.633 11.5924 154.861 12.5951 154.861 13.793V26H150.857V23.3242C150.219 24.3138 149.275 25.082 148.025 25.6289C146.788 26.1758 145.453 26.4492 144.021 26.4492C143.136 26.4492 142.296 26.3255 141.502 26.0781C140.72 25.8438 140.043 25.4857 139.47 25.0039C138.897 24.5221 138.435 23.9297 138.084 23.2266C137.745 22.5104 137.576 21.6901 137.576 20.7656ZM145.056 22.8359C145.851 22.8359 146.593 22.7383 147.283 22.543C147.986 22.3346 148.604 22.0547 149.138 21.7031C149.672 21.3385 150.089 20.9023 150.388 20.3945C150.701 19.8867 150.857 19.3268 150.857 18.7148V18.0312C150.219 17.9271 149.62 17.8685 149.06 17.8555C148.5 17.8424 148.005 17.8359 147.576 17.8359C145.597 17.8359 144.099 18.0964 143.084 18.6172C142.081 19.138 141.58 19.7826 141.58 20.5508C141.58 22.0742 142.739 22.8359 145.056 22.8359ZM178.444 12.1133C177.962 11.8789 177.467 11.7031 176.959 11.5859C176.465 11.4557 175.892 11.3906 175.241 11.3906C174.342 11.3906 173.496 11.5273 172.702 11.8008C171.92 12.0612 171.243 12.4583 170.67 12.9922C170.097 13.526 169.648 14.1966 169.323 15.0039C169.01 15.7982 168.854 16.7422 168.854 17.8359V22.3672H172.936V26H160.69V22.3672H164.811V11.4492H160.69V7.79688H168.854V12.3672C169.518 10.5443 170.495 9.25521 171.784 8.5C173.086 7.74479 174.629 7.36719 176.412 7.36719C176.972 7.36719 177.558 7.42578 178.17 7.54297C178.782 7.66016 179.381 7.86849 179.967 8.16797L178.444 12.1133ZM202.124 20.1992C201.916 22.1133 201.161 23.6367 199.859 24.7695C198.57 25.8893 196.955 26.4492 195.015 26.4492C193.947 26.4492 192.971 26.2734 192.085 25.9219C191.2 25.5703 190.445 25.082 189.82 24.457C189.195 23.832 188.706 23.0833 188.355 22.2109C188.016 21.3255 187.847 20.362 187.847 19.3203V11.4492H183.726V7.79688H187.847V0.511719H191.89V7.79688H199.527V11.4492H191.89V19.3203C191.89 20.4922 192.176 21.3646 192.749 21.9375C193.322 22.5104 194.077 22.7969 195.015 22.7969C196.161 22.7969 197.014 22.4648 197.573 21.8008C198.133 21.1367 198.465 20.3359 198.57 19.3984L202.124 20.1992Z"/>
</mask>
<path d="M17.6414 8.12891C17.6414 10.681 16.8667 12.582 15.3172 13.832C13.7677 15.069 11.6062 15.6875 8.83281 15.6875H4.43828V26H0.395309L0.395309 0.511719H8.79375C11.5932 0.511719 13.7677 1.15625 15.3172 2.44531C16.8667 3.72135 17.6414 5.61589 17.6414 8.12891ZM13.5984 8.07031C13.5984 6.76823 13.1687 5.79167 12.3094 5.14062C11.463 4.48958 10.3042 4.16406 8.83281 4.16406H4.43828V12.0352H8.83281C10.3042 12.0352 11.463 11.7096 12.3094 11.0586C13.1687 10.4076 13.5984 9.41146 13.5984 8.07031ZM23.4312 7.79688H27.4742V19.0469C27.4742 20.4531 27.7411 21.4297 28.275 21.9766C28.8089 22.5234 29.5836 22.7969 30.5992 22.7969C32.0836 22.7969 33.301 22.1914 34.2516 20.9805C35.2021 19.7695 35.6773 18.0964 35.6773 15.9609V7.79688H39.7203V26H35.6773V21.4492C35.2737 23.0117 34.525 24.2357 33.4312 25.1211C32.3375 26.0065 30.9898 26.4492 29.3883 26.4492C27.5263 26.4492 26.068 25.8438 25.0133 24.6328C23.9586 23.4089 23.4312 21.5469 23.4312 19.0469V7.79688ZM62.7562 26H46.4672V22.4062L56.8383 11.4492H50.0219V15.1211H46.4672V7.79688H62.3852V11.4492L51.9945 22.3672H59.182V18.7539H62.7562V26ZM83.8586 26H71.632V22.3672H75.6164V4.16406H71.632V0.511719H79.6594V22.3672H83.8586V26ZM131.864 26H127.821V8.75391L125.262 17.9141H122.137L119.618 8.75391V26H115.575V0.511719H120.38L123.7 12.0352L127.02 0.511719H131.864V26ZM137.576 20.7656C137.576 19.6979 137.862 18.7669 138.435 17.9727C139.008 17.1654 139.757 16.4948 140.681 15.9609C141.619 15.4271 142.686 15.0299 143.884 14.7695C145.095 14.4961 146.326 14.3594 147.576 14.3594C148.266 14.3594 148.858 14.3724 149.353 14.3984C149.848 14.4245 150.349 14.4635 150.857 14.5156V13.793C150.857 12.8424 150.486 12.1328 149.744 11.6641C149.015 11.1953 148.051 10.9609 146.853 10.9609C145.759 10.9609 144.646 11.1172 143.513 11.4297C142.38 11.7292 141.306 12.1719 140.291 12.7578L138.65 9.59375C139.848 8.90365 141.13 8.36328 142.498 7.97266C143.878 7.56901 145.33 7.36719 146.853 7.36719C147.843 7.36719 148.813 7.47786 149.763 7.69922C150.727 7.92057 151.586 8.28516 152.341 8.79297C153.11 9.30078 153.722 9.96484 154.177 10.7852C154.633 11.5924 154.861 12.5951 154.861 13.793V26H150.857V23.3242C150.219 24.3138 149.275 25.082 148.025 25.6289C146.788 26.1758 145.453 26.4492 144.021 26.4492C143.136 26.4492 142.296 26.3255 141.502 26.0781C140.72 25.8438 140.043 25.4857 139.47 25.0039C138.897 24.5221 138.435 23.9297 138.084 23.2266C137.745 22.5104 137.576 21.6901 137.576 20.7656ZM145.056 22.8359C145.851 22.8359 146.593 22.7383 147.283 22.543C147.986 22.3346 148.604 22.0547 149.138 21.7031C149.672 21.3385 150.089 20.9023 150.388 20.3945C150.701 19.8867 150.857 19.3268 150.857 18.7148V18.0312C150.219 17.9271 149.62 17.8685 149.06 17.8555C148.5 17.8424 148.005 17.8359 147.576 17.8359C145.597 17.8359 144.099 18.0964 143.084 18.6172C142.081 19.138 141.58 19.7826 141.58 20.5508C141.58 22.0742 142.739 22.8359 145.056 22.8359ZM178.444 12.1133C177.962 11.8789 177.467 11.7031 176.959 11.5859C176.465 11.4557 175.892 11.3906 175.241 11.3906C174.342 11.3906 173.496 11.5273 172.702 11.8008C171.92 12.0612 171.243 12.4583 170.67 12.9922C170.097 13.526 169.648 14.1966 169.323 15.0039C169.01 15.7982 168.854 16.7422 168.854 17.8359V22.3672H172.936V26H160.69V22.3672H164.811V11.4492H160.69V7.79688H168.854V12.3672C169.518 10.5443 170.495 9.25521 171.784 8.5C173.086 7.74479 174.629 7.36719 176.412 7.36719C176.972 7.36719 177.558 7.42578 178.17 7.54297C178.782 7.66016 179.381 7.86849 179.967 8.16797L178.444 12.1133ZM202.124 20.1992C201.916 22.1133 201.161 23.6367 199.859 24.7695C198.57 25.8893 196.955 26.4492 195.015 26.4492C193.947 26.4492 192.971 26.2734 192.085 25.9219C191.2 25.5703 190.445 25.082 189.82 24.457C189.195 23.832 188.706 23.0833 188.355 22.2109C188.016 21.3255 187.847 20.362 187.847 19.3203V11.4492H183.726V7.79688H187.847V0.511719H191.89V7.79688H199.527V11.4492H191.89V19.3203C191.89 20.4922 192.176 21.3646 192.749 21.9375C193.322 22.5104 194.077 22.7969 195.015 22.7969C196.161 22.7969 197.014 22.4648 197.573 21.8008C198.133 21.1367 198.465 20.3359 198.57 19.3984L202.124 20.1992Z" fill="#AEFFFF"/>
<path d="M15.3172 13.832L15.9411 14.6136L15.9451 14.6103L15.3172 13.832ZM4.43828 15.6875V14.6875H3.43828V15.6875H4.43828ZM4.43828 26V27H5.43828V26H4.43828ZM0.395309 26H-0.604691V27H0.395309V26ZM0.395309 0.511719V-0.488281H-0.604691V0.511719H0.395309ZM15.3172 2.44531L14.6776 3.21407L14.6815 3.21724L15.3172 2.44531ZM12.3094 5.14062L11.6996 5.93327L11.7055 5.93772L12.3094 5.14062ZM4.43828 4.16406V3.16406H3.43828V4.16406H4.43828ZM4.43828 12.0352H3.43828V13.0352H4.43828V12.0352ZM12.3094 11.0586L11.7055 10.2615L11.6997 10.266L12.3094 11.0586ZM16.6414 8.12891C16.6414 10.4712 15.9398 12.0449 14.6893 13.0537L15.9451 14.6103C17.7935 13.1192 18.6414 10.8908 18.6414 8.12891H16.6414ZM14.6933 13.0505C13.3798 14.0991 11.4685 14.6875 8.83281 14.6875V16.6875C11.744 16.6875 14.1556 16.0389 15.9411 14.6135L14.6933 13.0505ZM8.83281 14.6875H4.43828V16.6875H8.83281V14.6875ZM3.43828 15.6875V26H5.43828V15.6875H3.43828ZM4.43828 25H0.395309L0.395309 27H4.43828V25ZM1.39531 26V0.511719H-0.604691L-0.604691 26H1.39531ZM0.395309 1.51172H8.79375V-0.488281H0.395309V1.51172ZM8.79375 1.51172C11.4497 1.51172 13.3666 2.12338 14.6776 3.21406L15.9567 1.67656C14.1688 0.189116 11.7368 -0.488281 8.79375 -0.488281V1.51172ZM14.6815 3.21724C15.9436 4.25667 16.6414 5.83262 16.6414 8.12891H18.6414C18.6414 5.39915 17.7897 3.18604 15.9529 1.67338L14.6815 3.21724ZM14.5984 8.07031C14.5984 6.52799 14.075 5.22364 12.9132 4.34353L11.7055 5.93772C12.2625 6.3597 12.5984 7.00847 12.5984 8.07031H14.5984ZM12.9191 4.348C11.8424 3.51982 10.4426 3.16406 8.83281 3.16406V5.16406C10.1657 5.16406 11.0836 5.45935 11.6997 5.93325L12.9191 4.348ZM8.83281 3.16406H4.43828V5.16406H8.83281V3.16406ZM3.43828 4.16406V12.0352H5.43828V4.16406H3.43828ZM4.43828 13.0352H8.83281V11.0352H4.43828V13.0352ZM8.83281 13.0352C10.4426 13.0352 11.8424 12.6794 12.9191 11.8512L11.6997 10.266C11.0836 10.7399 10.1657 11.0352 8.83281 11.0352V13.0352ZM12.9132 11.8557C14.0827 10.9697 14.5984 9.63983 14.5984 8.07031H12.5984C12.5984 9.18309 12.2548 9.84537 11.7055 10.2615L12.9132 11.8557ZM23.4312 7.79688V6.79688H22.4312V7.79688H23.4312ZM27.4742 7.79688H28.4742V6.79688H27.4742V7.79688ZM35.6773 7.79688V6.79688H34.6773V7.79688H35.6773ZM39.7203 7.79688H40.7203V6.79688H39.7203V7.79688ZM39.7203 26V27H40.7203V26H39.7203ZM35.6773 26H34.6773V27H35.6773V26ZM35.6773 21.4492H36.6773L34.7091 21.1991L35.6773 21.4492ZM25.0133 24.6328L24.2557 25.2856L24.2592 25.2896L25.0133 24.6328ZM23.4312 8.79688H27.4742V6.79688H23.4312V8.79688ZM26.4742 7.79688V19.0469H28.4742V7.79688H26.4742ZM26.4742 19.0469C26.4742 20.5167 26.7407 21.8364 27.5594 22.6751L28.9906 21.278C28.7416 21.023 28.4742 20.3896 28.4742 19.0469H26.4742ZM27.5594 22.6751C28.3373 23.4719 29.4062 23.7969 30.5992 23.7969V21.7969C29.761 21.7969 29.2805 21.575 28.9906 21.278L27.5594 22.6751ZM30.5992 23.7969C32.4036 23.7969 33.9063 23.0399 35.0382 21.5979L33.4649 20.363C32.6958 21.3429 31.7636 21.7969 30.5992 21.7969V23.7969ZM35.0382 21.5979C36.1717 20.1538 36.6773 18.2349 36.6773 15.9609H34.6773C34.6773 17.9578 34.2324 19.3853 33.4649 20.363L35.0382 21.5979ZM36.6773 15.9609V7.79688H34.6773V15.9609H36.6773ZM35.6773 8.79688H39.7203V6.79688H35.6773V8.79688ZM38.7203 7.79688V26H40.7203V7.79688H38.7203ZM39.7203 25H35.6773V27H39.7203V25ZM36.6773 26V21.4492H34.6773V26H36.6773ZM34.7091 21.1991C34.3509 22.5858 33.7055 23.6125 32.802 24.3438L34.0604 25.8983C35.3445 24.8588 36.1965 23.4376 36.6456 21.6993L34.7091 21.1991ZM32.802 24.3438C31.9107 25.0655 30.7942 25.4492 29.3883 25.4492V27.4492C31.1855 27.4492 32.7643 26.9476 34.0604 25.8983L32.802 24.3438ZM29.3883 25.4492C27.7644 25.4492 26.601 24.9332 25.7674 23.976L24.2592 25.2896C25.5349 26.7543 27.2882 27.4492 29.3883 27.4492V25.4492ZM25.7708 23.98C24.9385 23.0141 24.4312 21.4325 24.4312 19.0469H22.4312C22.4312 21.6612 22.9787 23.8036 24.2557 25.2856L25.7708 23.98ZM24.4312 19.0469V7.79688H22.4312V19.0469H24.4312ZM62.7562 26V27H63.7562V26H62.7562ZM46.4672 26H45.4672V27H46.4672V26ZM46.4672 22.4062L45.7409 21.7188L45.4672 22.008V22.4062H46.4672ZM56.8383 11.4492L57.5645 12.1366L59.1617 10.4492H56.8383V11.4492ZM50.0219 11.4492V10.4492H49.0219V11.4492H50.0219ZM50.0219 15.1211V16.1211H51.0219V15.1211H50.0219ZM46.4672 15.1211H45.4672V16.1211H46.4672V15.1211ZM46.4672 7.79688V6.79688H45.4672V7.79688H46.4672ZM62.3852 7.79688H63.3852V6.79688H62.3852V7.79688ZM62.3852 11.4492L63.1095 12.1386L63.3852 11.849V11.4492H62.3852ZM51.9945 22.3672L51.2701 21.6778L49.6623 23.3672H51.9945V22.3672ZM59.182 22.3672V23.3672H60.182V22.3672H59.182ZM59.182 18.7539V17.7539H58.182V18.7539H59.182ZM62.7562 18.7539H63.7562V17.7539H62.7562V18.7539ZM62.7562 25H46.4672V27H62.7562V25ZM47.4672 26V22.4062H45.4672V26H47.4672ZM47.1934 23.0937L57.5645 12.1366L56.112 10.7618L45.7409 21.7188L47.1934 23.0937ZM56.8383 10.4492H50.0219V12.4492H56.8383V10.4492ZM49.0219 11.4492V15.1211H51.0219V11.4492H49.0219ZM50.0219 14.1211H46.4672V16.1211H50.0219V14.1211ZM47.4672 15.1211V7.79688H45.4672V15.1211H47.4672ZM46.4672 8.79688H62.3852V6.79688H46.4672V8.79688ZM61.3852 7.79688V11.4492H63.3852V7.79688H61.3852ZM61.6608 10.7598L51.2701 21.6778L52.7189 23.0566L63.1095 12.1386L61.6608 10.7598ZM51.9945 23.3672H59.182V21.3672H51.9945V23.3672ZM60.182 22.3672V18.7539H58.182V22.3672H60.182ZM59.182 19.7539H62.7562V17.7539H59.182V19.7539ZM61.7562 18.7539V26H63.7562V18.7539H61.7562ZM83.8586 26V27H84.8586V26H83.8586ZM71.632 26H70.632V27H71.632V26ZM71.632 22.3672V21.3672H70.632V22.3672H71.632ZM75.6164 22.3672V23.3672H76.6164V22.3672H75.6164ZM75.6164 4.16406H76.6164V3.16406H75.6164V4.16406ZM71.632 4.16406H70.632V5.16406H71.632V4.16406ZM71.632 0.511719V-0.488281H70.632V0.511719H71.632ZM79.6594 0.511719H80.6594V-0.488281H79.6594V0.511719ZM79.6594 22.3672H78.6594V23.3672H79.6594V22.3672ZM83.8586 22.3672H84.8586V21.3672H83.8586V22.3672ZM83.8586 25H71.632V27H83.8586V25ZM72.632 26V22.3672H70.632V26H72.632ZM71.632 23.3672H75.6164V21.3672H71.632V23.3672ZM76.6164 22.3672V4.16406H74.6164V22.3672H76.6164ZM75.6164 3.16406H71.632V5.16406H75.6164V3.16406ZM72.632 4.16406V0.511719H70.632V4.16406H72.632ZM71.632 1.51172H79.6594V-0.488281H71.632V1.51172ZM78.6594 0.511719V22.3672H80.6594V0.511719H78.6594ZM79.6594 23.3672H83.8586V21.3672H79.6594V23.3672ZM82.8586 22.3672V26H84.8586V22.3672H82.8586ZM131.864 26V27H132.864V26H131.864ZM127.821 26H126.821V27H127.821V26ZM127.821 8.75391H128.821L126.858 8.48489L127.821 8.75391ZM125.262 17.9141V18.9141H126.021L126.226 18.1831L125.262 17.9141ZM122.137 17.9141L121.173 18.1793L121.375 18.9141H122.137V17.9141ZM119.618 8.75391L120.582 8.4887L118.618 8.75391H119.618ZM119.618 26V27H120.618V26H119.618ZM115.575 26H114.575V27H115.575V26ZM115.575 0.511719V-0.488281H114.575V0.511719H115.575ZM120.38 0.511719L121.341 0.234847L121.132 -0.488281H120.38V0.511719ZM123.7 12.0352L122.739 12.312L123.7 15.6469L124.661 12.312L123.7 12.0352ZM127.02 0.511719V-0.488281L126.268 -0.488281L126.059 0.234847L127.02 0.511719ZM131.864 0.511719H132.864V-0.488281H131.864V0.511719ZM131.864 25H127.821V27H131.864V25ZM128.821 26V8.75391H126.821V26H128.821ZM126.858 8.48489L124.299 17.645L126.226 18.1831L128.784 9.02293L126.858 8.48489ZM125.262 16.9141H122.137V18.9141H125.262V16.9141ZM123.102 17.6489L120.582 8.4887L118.654 9.01911L121.173 18.1793L123.102 17.6489ZM118.618 8.75391V26H120.618V8.75391H118.618ZM119.618 25H115.575V27H119.618V25ZM116.575 26V0.511719H114.575V26H116.575ZM115.575 1.51172H120.38V-0.488281H115.575V1.51172ZM119.419 0.78859L122.739 12.312L124.661 11.7583L121.341 0.234847L119.419 0.78859ZM124.661 12.312L127.981 0.78859L126.059 0.234847L122.739 11.7583L124.661 12.312ZM127.02 1.51172H131.864V-0.488281H127.02V1.51172ZM130.864 0.511719V26H132.864V0.511719H130.864ZM138.435 17.9727L139.246 18.5577L139.251 18.5514L138.435 17.9727ZM140.681 15.9609L140.186 15.0919L140.181 15.095L140.681 15.9609ZM143.884 14.7695L144.097 15.7467L144.105 15.745L143.884 14.7695ZM150.857 14.5156L150.755 15.5104L151.857 15.6234V14.5156H150.857ZM149.744 11.6641L149.203 12.5053L149.21 12.5096L149.744 11.6641ZM143.513 11.4297L143.769 12.3965L143.779 12.3937L143.513 11.4297ZM140.291 12.7578L139.403 13.2181L139.884 14.1467L140.79 13.624L140.291 12.7578ZM138.65 9.59375L138.151 8.72725L137.322 9.20479L137.762 10.0541L138.65 9.59375ZM142.498 7.97266L142.772 8.9342L142.778 8.93245L142.498 7.97266ZM149.763 7.69922L149.536 8.67316L149.539 8.67383L149.763 7.69922ZM152.341 8.79297L151.783 9.62284L151.79 9.62719L152.341 8.79297ZM154.177 10.7852L153.303 11.2708L153.307 11.2768L154.177 10.7852ZM154.861 26V27H155.861V26H154.861ZM150.857 26H149.857V27H150.857V26ZM150.857 23.3242H151.857V19.9278L150.017 22.7823L150.857 23.3242ZM148.025 25.6289L147.624 24.7127L147.621 24.7143L148.025 25.6289ZM141.502 26.0781L141.799 25.1233L141.789 25.1203L141.502 26.0781ZM139.47 25.0039L138.827 25.7693L139.47 25.0039ZM138.084 23.2266L137.18 23.6539L137.184 23.6639L137.189 23.6738L138.084 23.2266ZM147.283 22.543L147.555 23.5052L147.567 23.5018L147.283 22.543ZM149.138 21.7031L149.688 22.5383L149.695 22.5337L149.702 22.5289L149.138 21.7031ZM150.388 20.3945L149.537 19.8704L149.532 19.8784L149.527 19.8865L150.388 20.3945ZM150.857 18.0312H151.857V17.1813L151.018 17.0443L150.857 18.0312ZM143.084 18.6172L142.627 17.7274L142.623 17.7298L143.084 18.6172ZM138.576 20.7656C138.576 19.888 138.807 19.1661 139.246 18.5577L137.624 17.3877C136.917 18.3677 136.576 19.5079 136.576 20.7656H138.576ZM139.251 18.5514C139.734 17.8704 140.372 17.2946 141.181 16.8269L140.181 15.095C139.142 15.695 138.282 16.4603 137.62 17.3939L139.251 18.5514ZM141.176 16.8299C142.014 16.3525 142.985 15.9885 144.097 15.7467L143.672 13.7924C142.388 14.0714 141.223 14.5016 140.186 15.092L141.176 16.8299ZM144.105 15.745C145.243 15.488 146.399 15.3594 147.576 15.3594V13.3594C146.252 13.3594 144.948 13.5042 143.664 13.7941L144.105 15.745ZM147.576 15.3594C148.255 15.3594 148.829 15.3722 149.301 15.3971L149.406 13.3998C148.888 13.3726 148.277 13.3594 147.576 13.3594V15.3594ZM149.301 15.3971C149.778 15.4222 150.263 15.46 150.755 15.5104L150.959 13.5208C150.435 13.4671 149.917 13.4268 149.406 13.3998L149.301 15.3971ZM151.857 14.5156V13.793H149.857V14.5156H151.857ZM151.857 13.793C151.857 12.5334 151.338 11.488 150.278 10.8186L149.21 12.5096C149.634 12.7776 149.857 13.1515 149.857 13.793H151.857ZM150.285 10.8229C149.343 10.2179 148.172 9.96094 146.853 9.96094V11.9609C147.93 11.9609 148.686 12.1727 149.203 12.5052L150.285 10.8229ZM146.853 9.96094C145.663 9.96094 144.46 10.1311 143.247 10.4657L143.779 12.3937C144.832 12.1033 145.856 11.9609 146.853 11.9609V9.96094ZM143.258 10.4629C142.039 10.785 140.883 11.2615 139.791 11.8916L140.79 13.624C141.729 13.0822 142.722 12.6733 143.769 12.3965L143.258 10.4629ZM141.178 12.2975L139.538 9.13343L137.762 10.0541L139.403 13.2181L141.178 12.2975ZM139.149 10.4602C140.274 9.812 141.481 9.30304 142.772 8.93418L142.223 7.01113C140.78 7.42352 139.421 7.99529 138.151 8.72725L139.149 10.4602ZM142.778 8.93245C144.062 8.55701 145.419 8.36719 146.853 8.36719V6.36719C145.24 6.36719 143.694 6.58101 142.217 7.01286L142.778 8.93245ZM146.853 8.36719C147.767 8.36719 148.661 8.46936 149.536 8.67316L149.99 6.72528C148.964 6.48637 147.918 6.36719 146.853 6.36719V8.36719ZM149.539 8.67383C150.394 8.87016 151.138 9.18897 151.783 9.62281L152.899 7.96313C152.034 7.38134 151.06 6.97099 149.987 6.72461L149.539 8.67383ZM151.79 9.62719C152.422 10.0447 152.924 10.5881 153.303 11.2708L155.051 10.2995C154.519 9.34155 153.798 8.55688 152.893 7.95875L151.79 9.62719ZM153.307 11.2768C153.656 11.8964 153.861 12.7182 153.861 13.793H155.861C155.861 12.4719 155.61 11.2885 155.048 10.2936L153.307 11.2768ZM153.861 13.793V26H155.861V13.793H153.861ZM154.861 25H150.857V27H154.861V25ZM151.857 26V23.3242H149.857V26H151.857ZM150.017 22.7823C149.501 23.5817 148.723 24.2319 147.624 24.7127L148.426 26.5451C149.827 25.9322 150.937 25.0459 151.697 23.8661L150.017 22.7823ZM147.621 24.7143C146.518 25.2016 145.322 25.4492 144.021 25.4492V27.4492C145.584 27.4492 147.058 27.15 148.429 26.5435L147.621 24.7143ZM144.021 25.4492C143.23 25.4492 142.491 25.3389 141.799 25.1234L141.204 27.0329C142.101 27.3121 143.041 27.4492 144.021 27.4492V25.4492ZM141.789 25.1203C141.126 24.9216 140.573 24.6249 140.114 24.2385L138.827 25.7693C139.513 26.3464 140.314 26.7659 141.214 27.0359L141.789 25.1203ZM140.114 24.2385C139.651 23.849 139.272 23.3667 138.978 22.7793L137.189 23.6738C137.599 24.4927 138.144 25.1953 138.827 25.7693L140.114 24.2385ZM138.988 22.7992C138.722 22.2372 138.576 21.5669 138.576 20.7656H136.576C136.576 21.8133 136.768 22.7836 137.18 23.6539L138.988 22.7992ZM145.056 23.8359C145.933 23.8359 146.767 23.7281 147.555 23.5052L147.01 21.5808C146.418 21.7485 145.768 21.8359 145.056 21.8359V23.8359ZM147.567 23.5018C148.351 23.2695 149.061 22.9512 149.688 22.5383L148.588 20.868C148.148 21.1582 147.621 21.3997 146.999 21.5842L147.567 23.5018ZM149.702 22.5289C150.346 22.0896 150.869 21.5486 151.25 20.9025L149.527 19.8865C149.309 20.2561 148.999 20.5875 148.574 20.8773L149.702 22.5289ZM151.24 20.9186C151.652 20.2489 151.857 19.5067 151.857 18.7148H149.857C149.857 19.1469 149.749 19.5245 149.537 19.8704L151.24 20.9186ZM151.857 18.7148V18.0312H149.857V18.7148H151.857ZM151.018 17.0443C150.341 16.9338 149.696 16.87 149.083 16.8557L149.037 18.8552C149.544 18.867 150.097 18.9204 150.696 19.0182L151.018 17.0443ZM149.083 16.8557C148.518 16.8426 148.015 16.8359 147.576 16.8359V18.8359C147.996 18.8359 148.483 18.8423 149.037 18.8552L149.083 16.8557ZM147.576 16.8359C145.539 16.8359 143.852 17.0991 142.627 17.7274L143.54 19.507C144.346 19.0936 145.655 18.8359 147.576 18.8359V16.8359ZM142.623 17.7298C141.463 18.3321 140.58 19.2471 140.58 20.5508H142.58C142.58 20.3181 142.699 19.9439 143.545 19.5046L142.623 17.7298ZM140.58 20.5508C140.58 21.6099 141.007 22.5139 141.9 23.1003C142.718 23.6385 143.82 23.8359 145.056 23.8359V21.8359C143.975 21.8359 143.338 21.6525 142.998 21.429C142.731 21.2536 142.58 21.0151 142.58 20.5508H140.58ZM178.444 12.1133L178.006 13.0125L178.985 13.4885L179.377 12.4735L178.444 12.1133ZM176.959 11.5859L176.705 12.553L176.72 12.5569L176.735 12.5603L176.959 11.5859ZM172.702 11.8008L173.018 12.7495L173.027 12.7463L172.702 11.8008ZM170.67 12.9922L169.989 12.2606L170.67 12.9922ZM169.323 15.0039L168.395 14.6299L168.392 14.6378L169.323 15.0039ZM168.854 22.3672H167.854V23.3672H168.854V22.3672ZM172.936 22.3672H173.936V21.3672H172.936V22.3672ZM172.936 26V27H173.936V26H172.936ZM160.69 26H159.69V27H160.69V26ZM160.69 22.3672V21.3672H159.69V22.3672H160.69ZM164.811 22.3672V23.3672H165.811V22.3672H164.811ZM164.811 11.4492H165.811V10.4492H164.811V11.4492ZM160.69 11.4492H159.69V12.4492H160.69V11.4492ZM160.69 7.79688V6.79688H159.69V7.79688H160.69ZM168.854 7.79688H169.854V6.79688H168.854V7.79688ZM168.854 12.3672H167.854L169.793 12.7095L168.854 12.3672ZM171.784 8.5L171.282 7.63496L171.278 7.63717L171.784 8.5ZM179.967 8.16797L180.9 8.52819L181.225 7.68762L180.422 7.27753L179.967 8.16797ZM178.881 11.214C178.334 10.9476 177.768 10.7462 177.184 10.6115L176.735 12.5603C177.167 12.6601 177.59 12.8102 178.006 13.0125L178.881 11.214ZM177.214 10.6189C176.617 10.4618 175.955 10.3906 175.241 10.3906V12.3906C175.828 12.3906 176.312 12.4497 176.705 12.553L177.214 10.6189ZM175.241 10.3906C174.239 10.3906 173.282 10.5433 172.376 10.8552L173.027 12.7463C173.71 12.5114 174.445 12.3906 175.241 12.3906V10.3906ZM172.385 10.8521C171.475 11.1555 170.672 11.624 169.989 12.2606L171.352 13.7238C171.815 13.2927 172.365 12.9669 173.018 12.7495L172.385 10.8521ZM169.989 12.2606C169.297 12.9049 168.769 13.7022 168.395 14.6299L170.25 15.3779C170.527 14.6911 170.898 14.1472 171.352 13.7238L169.989 12.2606ZM168.392 14.6378C168.023 15.5764 167.854 16.6506 167.854 17.8359H169.854C169.854 16.8338 169.997 16.02 170.253 15.37L168.392 14.6378ZM167.854 17.8359V22.3672H169.854V17.8359H167.854ZM168.854 23.3672H172.936V21.3672H168.854V23.3672ZM171.936 22.3672V26H173.936V22.3672H171.936ZM172.936 25H160.69V27H172.936V25ZM161.69 26V22.3672H159.69V26H161.69ZM160.69 23.3672H164.811V21.3672H160.69V23.3672ZM165.811 22.3672V11.4492H163.811V22.3672H165.811ZM164.811 10.4492H160.69V12.4492H164.811V10.4492ZM161.69 11.4492V7.79688H159.69V11.4492H161.69ZM160.69 8.79688H168.854V6.79688H160.69V8.79688ZM167.854 7.79688V12.3672H169.854V7.79688H167.854ZM169.793 12.7095C170.402 11.039 171.254 9.96903 172.289 9.36283L171.278 7.63717C169.735 8.54138 168.634 10.0495 167.914 12.0249L169.793 12.7095ZM172.285 9.36503C173.409 8.71334 174.772 8.36719 176.412 8.36719V6.36719C174.485 6.36719 172.762 6.77624 171.282 7.63497L172.285 9.36503ZM176.412 8.36719C176.903 8.36719 177.425 8.4185 177.982 8.52512L178.358 6.56081C177.691 6.43307 177.042 6.36719 176.412 6.36719V8.36719ZM177.982 8.52512C178.496 8.62355 179.006 8.79956 179.512 9.0584L180.422 7.27753C179.757 6.93742 179.068 6.69676 178.358 6.56081L177.982 8.52512ZM179.034 7.80775L177.511 11.7531L179.377 12.4735L180.9 8.52819L179.034 7.80775ZM202.124 20.1992L203.118 20.3074L203.215 19.4199L202.344 19.2237L202.124 20.1992ZM199.859 24.7695L200.514 25.5245L200.515 25.524L199.859 24.7695ZM188.355 22.2109L187.421 22.5681L187.424 22.5764L187.427 22.5847L188.355 22.2109ZM187.847 11.4492H188.847V10.4492H187.847V11.4492ZM183.726 11.4492H182.726V12.4492H183.726V11.4492ZM183.726 7.79688V6.79688H182.726V7.79688H183.726ZM187.847 7.79688V8.79688H188.847V7.79688H187.847ZM187.847 0.511719V-0.488281H186.847V0.511719H187.847ZM191.89 0.511719H192.89V-0.488281H191.89V0.511719ZM191.89 7.79688H190.89V8.79688H191.89V7.79688ZM199.527 7.79688H200.527V6.79688H199.527V7.79688ZM199.527 11.4492V12.4492H200.527V11.4492H199.527ZM191.89 11.4492V10.4492H190.89V11.4492H191.89ZM198.57 19.3984L198.789 18.4229L197.699 18.1773L197.576 19.288L198.57 19.3984ZM201.13 20.091C200.946 21.7861 200.292 23.067 199.202 24.0151L200.515 25.524C202.029 24.2064 202.886 22.4405 203.118 20.3074L201.13 20.091ZM199.203 24.0146C198.12 24.9548 196.749 25.4492 195.015 25.4492V27.4492C197.161 27.4492 199.019 26.8238 200.514 25.5245L199.203 24.0146ZM195.015 25.4492C194.058 25.4492 193.209 25.2921 192.454 24.9925L191.716 26.8513C192.732 27.2548 193.836 27.4492 195.015 27.4492V25.4492ZM192.454 24.9925C191.685 24.6872 191.048 24.2713 190.527 23.7499L189.112 25.1641C189.841 25.8928 190.714 26.4534 191.716 26.8513L192.454 24.9925ZM190.527 23.7499C190.003 23.2261 189.587 22.5929 189.282 21.8372L187.427 22.5847C187.826 23.5738 188.386 24.438 189.112 25.1641L190.527 23.7499ZM189.289 21.8538C188.998 21.0932 188.847 20.252 188.847 19.3203H186.847C186.847 20.472 187.034 21.5579 187.421 22.5681L189.289 21.8538ZM188.847 19.3203V11.4492H186.847V19.3203H188.847ZM187.847 10.4492H183.726V12.4492H187.847V10.4492ZM184.726 11.4492V7.79688H182.726V11.4492H184.726ZM183.726 8.79688H187.847V6.79688H183.726V8.79688ZM188.847 7.79688V0.511719H186.847V7.79688H188.847ZM187.847 1.51172H191.89V-0.488281H187.847V1.51172ZM190.89 0.511719V7.79688H192.89V0.511719H190.89ZM191.89 8.79688H199.527V6.79688H191.89V8.79688ZM198.527 7.79688V11.4492H200.527V7.79688H198.527ZM199.527 10.4492H191.89V12.4492H199.527V10.4492ZM190.89 11.4492V19.3203H192.89V11.4492H190.89ZM190.89 19.3203C190.89 20.6387 191.212 21.8143 192.042 22.6446L193.456 21.2304C193.141 20.9149 192.89 20.3456 192.89 19.3203H190.89ZM192.042 22.6446C192.832 23.4347 193.857 23.7969 195.015 23.7969V21.7969C194.297 21.7969 193.812 21.5861 193.456 21.2304L192.042 22.6446ZM195.015 23.7969C196.355 23.7969 197.532 23.4016 198.338 22.4454L196.809 21.1562C196.495 21.5281 195.966 21.7969 195.015 21.7969V23.7969ZM198.338 22.4454C199.037 21.6168 199.439 20.6255 199.563 19.5089L197.576 19.288C197.491 20.0464 197.23 20.6566 196.809 21.1562L198.338 22.4454ZM198.35 20.374L201.904 21.1748L202.344 19.2237L198.789 18.4229L198.35 20.374Z" fill="#D2F0F0" mask="url(#path-1-outside-1_93_3258)"/>
</g>
<defs>
<filter id="filter0_d_93_3258" x="0.395508" y="0.511719" width="204.729" height="31.9375" filterUnits="userSpaceOnUse" color-interpolation-filters="sRGB">
<feFlood flood-opacity="0" result="BackgroundImageFix"/>
<feColorMatrix in="SourceAlpha" type="matrix" values="0 0 0 0 0 0 0 0 0 0 0 0 0 0 0 0 0 0 127 0" result="hardAlpha"/>
<feOffset dx="3" dy="6"/>
<feComposite in2="hardAlpha" operator="out"/>
<feColorMatrix type="matrix" values="0 0 0 0 0 0 0 0 0 0 0 0 0 0 0 0 0 0 0.25 0"/>
<feBlend mode="normal" in2="BackgroundImageFix" result="effect1_dropShadow_93_3258"/>
<feBlend mode="normal" in="SourceGraphic" in2="effect1_dropShadow_93_3258" result="shape"/>
</filter>
</defs>
</svg>
