<svg width="55" height="11" viewBox="0 0 55 11" fill="none" xmlns="http://www.w3.org/2000/svg">
<path d="M0.0664062 1.36328H1.47266V10H0.0664062V1.36328ZM2.55078 1.36328C2.91797 1.36328 3.28125 1.42188 3.64062 1.53906C4 1.65625 4.32031 1.83203 4.60156 2.06641C4.89062 2.30078 5.12109 2.58594 5.29297 2.92188C5.47266 3.25 5.5625 3.62109 5.5625 4.03516C5.5625 4.47266 5.48828 4.87109 5.33984 5.23047C5.19141 5.58203 4.98438 5.87891 4.71875 6.12109C4.45312 6.36328 4.13281 6.55078 3.75781 6.68359C3.38281 6.81641 2.96875 6.88281 2.51562 6.88281H1.95312V5.85156H2.76172C2.93359 5.85156 3.10156 5.82422 3.26562 5.76953C3.4375 5.70703 3.59375 5.60938 3.73438 5.47656C3.875 5.34375 3.98828 5.16016 4.07422 4.92578C4.16016 4.68359 4.20312 4.38672 4.20312 4.03516C4.20312 3.89453 4.18359 3.73438 4.14453 3.55469C4.10547 3.36719 4.02344 3.19141 3.89844 3.02734C3.78125 2.85547 3.61328 2.71484 3.39453 2.60547C3.17578 2.48828 2.88672 2.42969 2.52734 2.42969H1.95312V1.36328H2.55078ZM8.48047 6.98828C8.48047 7.26172 8.49219 7.51953 8.51562 7.76172C8.53906 7.99609 8.58984 8.20312 8.66797 8.38281C8.74609 8.5625 8.86328 8.70703 9.01953 8.81641C9.17578 8.92578 9.38281 8.98047 9.64062 8.98047C9.74219 8.98047 9.88672 8.96484 10.0742 8.93359C10.2617 8.90234 10.4414 8.85156 10.6133 8.78125V9.64844C10.4102 9.75781 10.1875 9.85547 9.94531 9.94141C9.71094 10.0195 9.47656 10.0586 9.24219 10.0586C9.05469 10.0586 8.88672 10.0391 8.73828 10C8.58984 9.96875 8.44922 9.91797 8.31641 9.84766C8.19141 9.76953 8.07031 9.68359 7.95312 9.58984C7.83594 9.49609 7.71875 9.39062 7.60156 9.27344C7.46875 9.14062 7.36328 8.98828 7.28516 8.81641C7.20703 8.63672 7.14844 8.45312 7.10938 8.26562C7.07812 8.07031 7.05859 7.875 7.05078 7.67969C7.05078 7.48438 7.05078 7.29297 7.05078 7.10547V3.39062H8.48047V6.98828ZM12.5234 3.39062V10H11.2461L11.0938 9.32031V3.39062H12.5234ZM14.5156 3.39062H19.543V4.52734L16.1445 8.67578L15.9102 8.86328H19.543V10H14.5156V8.86328L17.9141 4.71484L18.1484 4.52734H14.5156V3.39062ZM22.9648 7.98438C22.9648 8.25 23 8.46094 23.0703 8.61719C23.1406 8.76562 23.2383 8.87891 23.3633 8.95703C23.4883 9.02734 23.6289 9.07422 23.7852 9.09766C23.9492 9.12109 24.125 9.13281 24.3125 9.13281V10C24.2109 10.0156 24.1055 10.0273 23.9961 10.0352C23.9102 10.043 23.8086 10.0469 23.6914 10.0469C23.5742 10.0547 23.457 10.0586 23.3398 10.0586C23.2227 10.0586 23.1055 10.0547 22.9883 10.0469C22.8711 10.0391 22.7656 10.0273 22.6719 10.0117C22.4062 9.95703 22.1992 9.83984 22.0508 9.66016C21.9023 9.48047 21.7891 9.28125 21.7109 9.0625C21.6328 8.83594 21.582 8.61719 21.5586 8.40625C21.543 8.19531 21.5352 8.03125 21.5352 7.91406V7.77344V0.894531H22.9648V7.98438ZM29.0938 1.36328H30.5234L32.8438 6.69531V8.86328H32.4688L30.5234 4.05859V10H29.0938V1.36328ZM35.6445 1.36328H37.0742V10H35.6445V4.05859L33.7109 8.86328H33.3242V6.71875L35.6445 1.36328ZM40.3086 8.00781C40.3086 8.35938 40.3789 8.62109 40.5195 8.79297C40.668 8.96484 40.8789 9.06641 41.1523 9.09766V10.0469C41.1211 10.0547 41.0703 10.0586 41 10.0586C40.7344 10.0586 40.4766 10.0234 40.2266 9.95312C39.9844 9.88281 39.7695 9.76953 39.582 9.61328C39.3945 9.45703 39.2461 9.25 39.1367 8.99219C39.0352 8.73438 38.9844 8.41797 38.9844 8.04297C38.9844 7.68359 39.0586 7.375 39.207 7.11719C39.3633 6.85156 39.5586 6.63672 39.793 6.47266C40.0352 6.30078 40.3086 6.17578 40.6133 6.09766C40.918 6.01172 41.2266 5.96875 41.5391 5.96875H42.0547V6.80078H41.7969C41.6406 6.80078 41.4766 6.81641 41.3047 6.84766C41.1328 6.87891 40.9727 6.9375 40.8242 7.02344C40.6758 7.10938 40.5508 7.23438 40.4492 7.39844C40.3555 7.55469 40.3086 7.75781 40.3086 8.00781ZM43.9531 8.04297C43.9531 8.10547 43.957 8.19922 43.9648 8.32422C43.9727 8.44141 43.9883 8.5625 44.0117 8.6875C44.0352 8.8125 44.0703 8.92578 44.1172 9.02734C44.1719 9.12891 44.2422 9.19531 44.3281 9.22656L43.9531 10.0117C43.8516 10.0117 43.7422 9.98828 43.625 9.94141C43.5156 9.89453 43.4062 9.82812 43.2969 9.74219C43.1953 9.65625 43.1055 9.5625 43.0273 9.46094C42.957 9.35156 42.9023 9.23438 42.8633 9.10938C42.7852 9.30469 42.6289 9.48047 42.3945 9.63672C42.168 9.78516 41.9141 9.89453 41.6328 9.96484V9.07422C41.8203 9.03516 41.9883 8.96094 42.1367 8.85156C42.293 8.73438 42.4258 8.59766 42.5352 8.44141V5.96875C42.5352 5.58594 42.5156 5.28125 42.4766 5.05469C42.4375 4.82812 42.3711 4.66406 42.2773 4.5625C42.1836 4.45312 42.0664 4.38672 41.9258 4.36328C41.793 4.33203 41.6328 4.31641 41.4453 4.31641C41.2734 4.31641 41.1094 4.33984 40.9531 4.38672C40.8047 4.42578 40.6641 4.47656 40.5312 4.53906C40.4062 4.59375 40.293 4.65625 40.1914 4.72656C40.0977 4.79688 40.0273 4.85156 39.9805 4.89062L39.4531 4.08203C39.5312 3.99609 39.6484 3.91016 39.8047 3.82422C39.9609 3.73047 40.1406 3.64844 40.3438 3.57812C40.5469 3.50781 40.7656 3.45313 41 3.41406C41.2422 3.36719 41.4922 3.34375 41.75 3.34375C41.9844 3.34375 42.2109 3.36719 42.4297 3.41406C42.6562 3.46094 42.8594 3.53906 43.0391 3.64844C43.2266 3.75781 43.3867 3.90625 43.5195 4.09375C43.6602 4.27344 43.7578 4.5 43.8125 4.77344C43.8672 5.04688 43.9023 5.32422 43.918 5.60547C43.9414 5.87891 43.9531 6.15234 43.9531 6.42578V7.94922V8.04297ZM47.457 3.39062L47.6094 4.07031V7.65625V7.67969V10H46.1914V3.39062H47.457ZM48.0898 3.68359C48.2852 3.57422 48.5195 3.49219 48.793 3.4375C49.0664 3.375 49.4375 3.34375 49.9062 3.34375V4.82031C49.6875 4.75781 49.4219 4.72266 49.1094 4.71484C48.9375 4.71484 48.7617 4.73047 48.582 4.76172C48.4102 4.78516 48.2461 4.82422 48.0898 4.87891V3.68359ZM53.3047 7.99609C53.3047 8.26172 53.3398 8.46875 53.4102 8.61719C53.4805 8.76562 53.5781 8.87891 53.7031 8.95703C53.8359 9.03516 53.9805 9.08594 54.1367 9.10938C54.3008 9.125 54.4727 9.13281 54.6523 9.13281V10C54.5508 10.0156 54.4492 10.0273 54.3477 10.0352C54.2617 10.043 54.1562 10.0469 54.0312 10.0469C53.9141 10.0547 53.7969 10.0586 53.6797 10.0586C53.5625 10.0586 53.4414 10.0547 53.3164 10.0469C53.1992 10.0391 53.0977 10.0273 53.0117 10.0117C52.7461 9.96484 52.5391 9.85156 52.3906 9.67188C52.2422 9.48438 52.1289 9.28125 52.0508 9.0625C51.9805 8.83594 51.9336 8.61719 51.9102 8.40625C51.8945 8.19531 51.8867 8.03125 51.8867 7.91406V4.35156H51.0195V3.39062H51.8867V1.51562H53.3047V3.39062H54.3594V4.35156H53.3047V7.99609Z" fill="blue"/>
</svg>
