<svg width="30" height="30" viewBox="0 0 30 30" fill="none" xmlns="http://www.w3.org/2000/svg">
<path d="M14.7531 28.6355C14.7531 28.6355 28.5063 21.1242 28.5063 9.70912C28.4944 7.84391 27.9282 6.03845 26.9001 4.58773C25.8721 3.13702 24.443 2.12681 22.8464 1.72218C21.2498 1.31755 19.5801 1.54242 18.1101 2.36004C16.64 3.17766 15.4566 4.5397 14.7531 6.2236C14.0497 4.5397 12.8663 3.17766 11.3962 2.36004C9.92618 1.54242 8.25646 1.31755 6.65987 1.72218C5.06328 2.12681 3.63421 3.13702 2.60617 4.58773C1.57813 6.03845 1.01191 7.84391 1 9.70912C1 21.1242 14.7531 28.6355 14.7531 28.6355Z" fill="#EA2020" stroke="#42ADA8" stroke-width="2" stroke-linecap="round" stroke-linejoin="round"/>
</svg>
